<svg id="CE" viewBox="0 0 547 349" fill="none" xmlns="http://www.w3.org/2000/svg">

<path id="Vector" d="M546.572 340.781H316.181V4.6875H546.572V71.9531H383.447V139.219H493.837V206.484H383.447V273.516H546.572V340.781Z" fill="currentColor"/>
<path id="Vector_2" d="M286.641 306.328C271.016 319.766 253.516 330.078 234.141 337.266C214.766 344.453 194.688 348.047 173.906 348.047C157.969 348.047 142.578 345.938 127.734 341.719C113.047 337.656 99.2188 331.875 86.25 324.375C73.4375 316.719 61.7188 307.578 51.0938 296.953C40.4688 286.328 31.3281 274.609 23.6719 261.797C16.1719 248.828 10.3125 235 6.09375 220.312C2.03125 205.469 0 190.078 0 174.141C0 158.203 2.03125 142.812 6.09375 127.969C10.3125 113.125 16.1719 99.2969 23.6719 86.4844C31.3281 73.5156 40.4688 61.7188 51.0938 51.0938C61.7188 40.4688 73.4375 31.4062 86.25 23.9062C99.2188 16.25 113.047 10.3906 127.734 6.32812C142.578 2.10938 157.969 0 173.906 0C194.688 0 214.766 3.59375 234.141 10.7812C253.516 17.8125 271.016 28.125 286.641 41.7188L251.016 100.312C241.172 89.6875 229.531 81.5625 216.094 75.9375C202.656 70.1562 188.594 67.2656 173.906 67.2656C159.062 67.2656 145.156 70.0781 132.188 75.7031C119.219 81.3281 107.891 88.9844 98.2031 98.6719C88.5156 108.203 80.8594 119.531 75.2344 132.656C69.6094 145.625 66.7969 159.453 66.7969 174.141C66.7969 188.828 69.6094 202.656 75.2344 215.625C80.8594 228.438 88.5156 239.688 98.2031 249.375C107.891 259.062 119.219 266.719 132.188 272.344C145.156 277.969 159.062 280.781 173.906 280.781C188.594 280.781 202.656 277.969 216.094 272.344C229.531 266.562 241.172 258.359 251.016 247.734L286.641 306.328Z" fill="currentColor"/>
</svg>
